<svg xmlns="http://www.w3.org/2000/svg" viewBox="0 0 700 400" width="700" height="400"><g transform="translate(0 0)"><path d="M18 52 A32 28 0 0 1 82 52 Z" fill="#C9A77C"></path><path d="M22 52 A28 22 0 0 1 78 52" fill="#DDBF97"></path><rect x="40" y="50" width="20" height="32" rx="8" fill="#EFE2CC"></rect><path d="M24 52h52" stroke="#A6845B" stroke-width="3"></path></g><g transform="translate(100 0)"><circle cx="40" cy="58" r="22" fill="#D8342A"></circle><circle cx="64" cy="48" r="18" fill="#E24A34"></circle><circle cx="34" cy="50" r="6" fill="#F08A74"></circle><path d="M62 30 l4 -8 M58 30 h12" stroke="#3E8A36" stroke-width="4" stroke-linecap="round" stroke-linejoin="round"></path></g><g transform="translate(200 0)"><circle cx="50" cy="50" r="32" fill="none" stroke="#8E3E7A" stroke-width="6"></circle><circle cx="50" cy="50" r="22" fill="none" stroke="#B0629A" stroke-width="6"></circle><circle cx="50" cy="50" r="12" fill="none" stroke="#8E3E7A" stroke-width="6"></circle><circle cx="50" cy="50" r="4" fill="#E9C7DE"></circle></g><g transform="translate(300 0)"><ellipse cx="38" cy="52" rx="16" ry="20" fill="#2B2B2B" transform="rotate(-20 38 52)"></ellipse><ellipse cx="62" cy="48" rx="16" ry="20" fill="#3A3A3A" transform="rotate(20 62 48)"></ellipse><circle cx="38" cy="52" r="5" fill="#C23A22"></circle><circle cx="62" cy="48" r="5" fill="#C23A22"></circle><ellipse cx="33" cy="44" rx="4" ry="6" fill="#FFFFFF" transform="rotate(-20 33 44)" opacity="0.35"></ellipse></g><g transform="translate(400 0)"><path d="M30 40 Q28 82 50 84 Q72 82 70 40 Q60 30 50 36 Q40 30 30 40Z" fill="#D8412C"></path><path d="M50 36 V24" stroke="#3E8A36" stroke-width="6" stroke-linecap="round" stroke-linejoin="round"></path><path d="M38 44 Q36 66 44 76" stroke="#F08A74" stroke-width="4" fill="none" stroke-linecap="round" stroke-linejoin="round"></path></g><g transform="translate(500 0)"><path d="M50 86 C40 60 20 40 26 18 C40 30 46 50 50 86Z" fill="#4E9A3A"></path><path d="M50 86 C48 60 38 40 42 18 C50 30 52 50 50 86Z" fill="#3D7F2E"></path><path d="M50 86 C56 60 56 40 58 18 C60 30 58 50 50 86Z" fill="#6BB348"></path></g><g transform="translate(600 0)"><ellipse cx="38" cy="52" rx="16" ry="28" fill="#2F6B28" transform="rotate(-25 38 52)"></ellipse><ellipse cx="62" cy="50" rx="16" ry="28" fill="#3D7F2E" transform="rotate(25 62 50)"></ellipse><path d="M38 30 L38 74 M62 28 L62 72" stroke="#8CC45A" stroke-width="2.5" transform="rotate(-25 38 52)"></path></g><g transform="translate(0 100)"><circle cx="38" cy="50" r="22" fill="#4E8B3A"></circle><circle cx="38" cy="50" r="17" fill="#DDEBC0"></circle><circle cx="64" cy="58" r="20" fill="#4E8B3A"></circle><circle cx="64" cy="58" r="15" fill="#DDEBC0"></circle><path d="M22 42 L54 58 M26 32 L52 46 M50 50 L80 66 M52 62 L76 74" stroke="#6A4A2A" stroke-width="3.5" stroke-linecap="round" stroke-linejoin="round"></path></g><g transform="translate(100 100)"><circle cx="40" cy="50" r="24" fill="#5A2A6A"></circle><circle cx="40" cy="50" r="19" fill="#EFE3C2"></circle><circle cx="64" cy="58" r="20" fill="#5A2A6A"></circle><circle cx="64" cy="58" r="15" fill="#EFE3C2"></circle><path d="M22 40 L58 58 M26 30 L54 44 M50 50 L80 66" stroke="#6A4A2A" stroke-width="3.5" stroke-linecap="round" stroke-linejoin="round"></path><circle cx="34" cy="52" r="1.8" fill="#C9B07A"></circle><circle cx="40" cy="52" r="1.8" fill="#C9B07A"></circle><circle cx="46" cy="52" r="1.8" fill="#C9B07A"></circle></g><g transform="translate(200 100)"><ellipse cx="26" cy="32" rx="7" ry="8" fill="#E9B21E" transform="rotate(0 26 32)"></ellipse><ellipse cx="42" cy="32" rx="7" ry="8" fill="#F2C230" transform="rotate(0 42 32)"></ellipse><ellipse cx="58" cy="32" rx="7" ry="8" fill="#F2C230" transform="rotate(0 58 32)"></ellipse><ellipse cx="74" cy="32" rx="7" ry="8" fill="#E9B21E" transform="rotate(0 74 32)"></ellipse><ellipse cx="26" cy="48" rx="7" ry="8" fill="#F2C230" transform="rotate(0 26 48)"></ellipse><ellipse cx="42" cy="48" rx="7" ry="8" fill="#F2C230" transform="rotate(0 42 48)"></ellipse><ellipse cx="58" cy="48" rx="7" ry="8" fill="#E9B21E" transform="rotate(0 58 48)"></ellipse><ellipse cx="74" cy="48" rx="7" ry="8" fill="#F2C230" transform="rotate(0 74 48)"></ellipse><ellipse cx="26" cy="64" rx="7" ry="8" fill="#F2C230" transform="rotate(0 26 64)"></ellipse><ellipse cx="42" cy="64" rx="7" ry="8" fill="#E9B21E" transform="rotate(0 42 64)"></ellipse><ellipse cx="58" cy="64" rx="7" ry="8" fill="#F2C230" transform="rotate(0 58 64)"></ellipse><ellipse cx="74" cy="64" rx="7" ry="8" fill="#F2C230" transform="rotate(0 74 64)"></ellipse><ellipse cx="26" cy="80" rx="7" ry="8" fill="#E9B21E" transform="rotate(0 26 80)"></ellipse><ellipse cx="42" cy="80" rx="7" ry="8" fill="#F2C230" transform="rotate(0 42 80)"></ellipse><ellipse cx="58" cy="80" rx="7" ry="8" fill="#F2C230" transform="rotate(0 58 80)"></ellipse><ellipse cx="74" cy="80" rx="7" ry="8" fill="#E9B21E" transform="rotate(0 74 80)"></ellipse></g><g transform="translate(300 100)"><path d="M22 30 l18 0 l-9 16 z" fill="#F2C94C" stroke="#D9A31E" stroke-width="2"></path><path d="M46 26 l18 0 l-9 16 z" fill="#F2C94C" stroke="#D9A31E" stroke-width="2"></path><path d="M62 44 l18 0 l-9 16 z" fill="#F2C94C" stroke="#D9A31E" stroke-width="2"></path><path d="M30 52 l18 0 l-9 16 z" fill="#F2C94C" stroke="#D9A31E" stroke-width="2"></path><path d="M52 62 l18 0 l-9 16 z" fill="#F2C94C" stroke="#D9A31E" stroke-width="2"></path><path d="M24 72 l18 0 l-9 16 z" fill="#F2C94C" stroke="#D9A31E" stroke-width="2"></path></g><g transform="translate(400 100)"><path d="M40 30 C22 40 22 72 42 76 C50 78 56 74 58 66" fill="#F4EEDD" stroke="#CFC3A6" stroke-width="3"></path><path d="M40 30 C50 40 50 64 42 76" fill="none" stroke="#CFC3A6" stroke-width="3"></path><path d="M40 30 V20" stroke="#9C8E6E" stroke-width="4" stroke-linecap="round" stroke-linejoin="round"></path><path d="M70 40 C62 52 62 60 70 62 C78 60 78 52 70 40Z" fill="#E7C04A"></path></g><g transform="translate(500 100)"><path d="M22 70 C40 72 70 58 78 30 C80 24 74 22 72 28 C64 50 44 60 22 62 C16 64 16 70 22 70Z" fill="#D8342A"></path><path d="M74 28 C76 20 82 18 86 20" stroke="#3E8A36" stroke-width="5" fill="none" stroke-linecap="round" stroke-linejoin="round"></path><path d="M30 42 C24 52 24 58 30 60 C36 58 36 52 30 42Z" fill="#E0461C"></path></g><g transform="translate(600 100)"><path d="M50 18 C34 42 30 54 30 62 A20 20 0 0 0 70 62 C70 54 66 42 50 18Z" fill="#E9A21E"></path><path d="M40 60 A10 10 0 0 0 50 70" stroke="#F6D27A" stroke-width="4" fill="none" stroke-linecap="round" stroke-linejoin="round"></path><path d="M62 76 C70 78 82 72 86 62" stroke="#D8342A" stroke-width="6" fill="none" stroke-linecap="round" stroke-linejoin="round"></path></g><g transform="translate(0 200)"><circle cx="38" cy="56" r="20" fill="#FFFFFF" stroke="#E3DCCB" stroke-width="3"></circle><circle cx="62" cy="46" r="18" fill="#FFFFFF" stroke="#E3DCCB" stroke-width="3"></circle><circle cx="32" cy="50" r="5" fill="#F2EEE4"></circle><circle cx="56" cy="40" r="5" fill="#F2EEE4"></circle></g><g transform="translate(100 200)"><circle cx="46" cy="56" r="24" fill="#FFFFFF" stroke="#E3DCCB" stroke-width="3"></circle><path d="M60 38 C62 22 78 18 84 20 C84 34 74 42 60 38Z" fill="#4E9A3A"></path><path d="M60 38 L76 26" stroke="#2F6B28" stroke-width="2.5"></path></g><g transform="translate(200 200)"><circle cx="38" cy="54" r="22" fill="#B3302A"></circle><circle cx="31" cy="49" r="2.6" fill="#F3C6B6"></circle><circle cx="44" cy="46" r="2.6" fill="#F3C6B6"></circle><circle cx="46" cy="59" r="2.6" fill="#F3C6B6"></circle><circle cx="34" cy="62" r="2.6" fill="#F3C6B6"></circle><circle cx="38" cy="54" r="2.6" fill="#F3C6B6"></circle><circle cx="28" cy="58" r="2.6" fill="#F3C6B6"></circle><circle cx="62" cy="44" r="20" fill="#C23A30"></circle><circle cx="55" cy="39" r="2.6" fill="#F3C6B6"></circle><circle cx="68" cy="36" r="2.6" fill="#F3C6B6"></circle><circle cx="70" cy="49" r="2.6" fill="#F3C6B6"></circle><circle cx="58" cy="52" r="2.6" fill="#F3C6B6"></circle><circle cx="62" cy="44" r="2.6" fill="#F3C6B6"></circle><circle cx="52" cy="48" r="2.6" fill="#F3C6B6"></circle></g><g transform="translate(300 200)"><circle cx="40" cy="54" r="22" fill="#8E2016"></circle><circle cx="33" cy="49" r="2.6" fill="#E9A48E"></circle><circle cx="46" cy="46" r="2.6" fill="#E9A48E"></circle><circle cx="48" cy="59" r="2.6" fill="#E9A48E"></circle><circle cx="36" cy="62" r="2.6" fill="#E9A48E"></circle><circle cx="40" cy="54" r="2.6" fill="#E9A48E"></circle><circle cx="30" cy="58" r="2.6" fill="#E9A48E"></circle><path d="M58 76 C70 74 82 60 84 42" stroke="#D8342A" stroke-width="7" fill="none" stroke-linecap="round" stroke-linejoin="round"></path><path d="M84 42 l4 -8" stroke="#3E8A36" stroke-width="4" stroke-linecap="round" stroke-linejoin="round"></path></g><g transform="translate(400 200)"><path d="M16 50 C30 30 60 28 76 46 L90 34 L88 66 L76 54 C60 72 30 70 16 50Z" fill="#7C93A8"></path><path d="M22 52 C40 60 60 58 74 50" stroke="#B8C8D6" stroke-width="4" fill="none"></path><circle cx="28" cy="46" r="3" fill="#1E2A36"></circle></g><g transform="translate(500 200)"><path d="M18 60 C18 34 50 22 72 30 C88 36 86 60 70 70 C52 80 18 80 18 60Z" fill="#F2A7A0"></path><path d="M26 58 C30 42 52 34 68 40" stroke="#FAD2CD" stroke-width="5" fill="none" stroke-linecap="round" stroke-linejoin="round"></path><path d="M18 60 C18 34 50 22 72 30 C88 36 86 60 70 70 C52 80 18 80 18 60Z" fill="none" stroke="#E88E86" stroke-width="3"></path></g><g transform="translate(600 200)"><path d="M14 70 L86 70 L86 50 L20 30 Z" fill="#F4EBD0"></path><path d="M14 70 L20 30 L86 50" fill="none" stroke="#DCCB9E" stroke-width="3"></path><path d="M30 52 l8 6 l6 -4 M54 58 l6 4 l8 -3 M44 44 l6 3" stroke="#5F7FA0" stroke-width="3.5" fill="none" stroke-linecap="round" stroke-linejoin="round"></path></g><g transform="translate(0 300)"><path d="M18 60 L82 60 L76 80 L24 80 Z" fill="#D7E3EC"></path><path d="M22 60 C24 38 40 30 50 32 C62 30 78 40 78 60 Z" fill="#FFFFFF" stroke="#E3DCCB" stroke-width="3"></path><circle cx="36" cy="48" r="1.8" fill="#E6DECB"></circle><circle cx="45" cy="52" r="1.8" fill="#E6DECB"></circle><circle cx="54" cy="48" r="1.8" fill="#E6DECB"></circle><circle cx="63" cy="52" r="1.8" fill="#E6DECB"></circle></g><g transform="translate(100 300)"><ellipse cx="40" cy="54" rx="24" ry="18" fill="#7A1E1E" transform="rotate(-15 40 54)"></ellipse><ellipse cx="60" cy="44" rx="22" ry="16" fill="#8E2A26" transform="rotate(15 60 44)"></ellipse><path d="M28 54 C36 48 46 50 54 56 M50 44 C58 40 66 42 72 46" stroke="#B04A44" stroke-width="3" fill="none" stroke-linecap="round" stroke-linejoin="round"></path></g><g transform="translate(200 300)"><circle cx="50" cy="58" r="26" fill="#FFFFFF" stroke="#E3DCCB" stroke-width="3"></circle><path d="M42 34 C44 22 56 22 58 34 C54 30 46 30 42 34Z" fill="#F4EFE4" stroke="#E3DCCB" stroke-width="2.5"></path><path d="M40 64 C46 70 56 70 62 64" stroke="#EFE8DA" stroke-width="3" fill="none" stroke-linecap="round" stroke-linejoin="round"></path></g><g transform="translate(300 300)"><circle cx="44" cy="56" r="24" fill="#FFFFFF" stroke="#E3DCCB" stroke-width="3"></circle><rect x="58" y="22" width="30" height="18" rx="4" fill="#1F6B3A"></rect><text x="73" y="35" font-family="Arial, sans-serif" font-size="11" font-weight="700" text-anchor="middle" fill="#FFFFFF">DOP</text></g><g transform="translate(400 300)"><path d="M14 72 L86 72 L60 26 Z" fill="#F2D48A"></path><path d="M14 72 L60 26 L86 72" fill="none" stroke="#C9A24A" stroke-width="5" stroke-linecap="round" stroke-linejoin="round"></path><circle cx="44" cy="56" r="2.4" fill="#E2BC62"></circle><circle cx="58" cy="48" r="2.4" fill="#E2BC62"></circle><circle cx="60" cy="62" r="2.4" fill="#E2BC62"></circle><circle cx="50" cy="66" r="2.4" fill="#E2BC62"></circle><circle cx="70" cy="64" r="2.4" fill="#E2BC62"></circle></g><g transform="translate(500 300)"><path d="M70 30 C44 22 20 40 24 62 C26 74 40 80 52 74" fill="none" stroke="#EF7A4A" stroke-width="16" stroke-linecap="round" stroke-linejoin="round"></path><path d="M70 30 C44 22 20 40 24 62" fill="none" stroke="#F6A47A" stroke-width="6" stroke-linecap="round" stroke-linejoin="round" opacity="0.8"></path><path d="M52 74 L64 82 L60 70 Z" fill="#E0633A"></path><circle cx="70" cy="30" r="4" fill="#2A2A2A"></circle><path d="M72 28 C82 18 88 20 92 24" stroke="#E0633A" stroke-width="2.5" fill="none"></path></g></svg>