<svg xmlns="http://www.w3.org/2000/svg" viewBox="0 0 400 400" xmlns:c2pa="http://c2pa.org/manifest"><metadata><c2pa:manifest>AAAWgmp1bWIAAAAeanVtZGMycGEAEQAQgAAAqgA4m3EDYzJwYQAAABZcanVtYgAAAEdqdW1kYzJtYQARABCAAACqADibcQN1cm46YzJwYToxNWRjMjQ2ZS03NjBmLTQ0NmEtOGUxMC0wMTg5ZGZhMGMzYTAAAAADl2p1bWIAAAApanVtZGMyYXMAEQAQgAAAqgA4m3EDYzJwYS5hc3NlcnRpb25zAAAAALxqdW1iAAAARGp1bWRjYm9yABEAEIAAAKoAOJtxE2MycGEuaW5ncmVkaWVudC52MwAAAAAYYzJzaMCIbe79pU2+EDq9qT/3+esAAABwY2JvcqNpZGM6Zm9ybWF0bWltYWdlL3N2Zyt4bWxqaW5zdGFuY2VJRHgseG1wOmlpZDozOTU3ZGZlYy1jMmFlLTRmNzEtODBlMS01ZjcwZWIwOGY1Y2ZscmVsYXRpb25zaGlwaHBhcmVudE9mAAAB4mp1bWIAAABBanVtZGNib3IAEQAQgAAAqgA4m3ETYzJwYS5hY3Rpb25zLnYyAAAAABhjMnNoWlWRcl8gxe6RTNcQnWKMaQAAAZljYm9yomdhY3Rpb25zgqJmYWN0aW9ua2MycGEub3BlbmVkanBhcmFtZXRlcnOha2luZ3JlZGllbnRzgaJjdXJseC1zZWxmI2p1bWJmPWMycGEuYXNzZXJ0aW9ucy9jMnBhLmluZ3JlZGllbnQudjNkaGFzaFggzx6IiwImmHa4AjH6NRckux9ZjkIXLoJ3btjHoaIpb8GkZmFjdGlvbngdY29tLmFudGhyb3BpYy5jbGF1ZGUucHJvdmlkZWRqcGFyYW1ldGVyc6F4H2NvbS5hbnRocm9waWMub3JpZ2luLWNvbmZpZGVuY2VndW5rbm93bmtkZXNjcmlwdGlvbnhmQ2xhdWRlIHByb3ZpZGVkIHRoaXMgZmlsZSBhdCB0aGUgcmVxdWVzdCBvZiBhIHVzZXIgYW5kIG1heSBoYXZlIGNyZWF0ZWQgb3IgbW9kaWZpZWQgdGhlIGZpbGUgY29udGVudHMubXNvZnR3YXJlQWdlbnShZG5hbWVmQ2xhdWRlcmFsbEFjdGlvbnNJbmNsdWRlZPUAAADIanVtYgAAAEBqdW1kY2JvcgARABCAAACqADibcRNjMnBhLmhhc2guZGF0YQAAAAAYYzJzaHKmO+0mQg9W5jsm7TXaklgAAACAY2JvcqVjYWxnZnNoYTI1NmNwYWRNAAAAAAAAAAAAAAAAAGRoYXNoWCDaMaCGWoe9yX6ht9NYIusJWkYCtY5KWCl68ZnM2jtUIWRuYW1lbmp1bWJmIG1hbmlmZXN0amV4Y2x1c2lvbnOBomVzdGFydBh9Zmxlbmd0aBkeBAAAAj5qdW1iAAAAJ2p1bWRjMmNsABEAEIAAAKoAOJtxA2MycGEuY2xhaW0udjIAAAACD2Nib3KlY2FsZ2ZzaGEyNTZpc2lnbmF0dXJleE1zZWxmI2p1bWJmPS9jMnBhL3VybjpjMnBhOjE1ZGMyNDZlLTc2MGYtNDQ2YS04ZTEwLTAxODlkZmEwYzNhMC9jMnBhLnNpZ25hdHVyZWppbnN0YW5jZUlEeCx4bXA6aWlkOjgwMDM4ZTQ5LWM5OGMtNDRkZC1hZDA0LWM4OTM0MjhjZjRkYXJjcmVhdGVkX2Fzc2VydGlvbnODomN1cmx4LXNlbGYjanVtYmY9YzJwYS5hc3NlcnRpb25zL2MycGEuaW5ncmVkaWVudC52M2RoYXNoWCDPHoiLAiaYdrgCMfo1FyS7H1mOQhcugndu2MehoilvwaJjdXJseCpzZWxmI2p1bWJmPWMycGEuYXNzZXJ0aW9ucy9jMnBhLmFjdGlvbnMudjJkaGFzaFgg0NznSUhLr8MA3DuDeIgKhl3kkSAUd3YoPTZzu7Agz7OiY3VybHgpc2VsZiNqdW1iZj1jMnBhLmFzc2VydGlvbnMvYzJwYS5oYXNoLmRhdGFkaGFzaFggbld53dqUadwrHYTC2AUIDiX1SyBgfDSEyjI1h4w4NwZ0Y2xhaW1fZ2VuZXJhdG9yX2luZm+jZG5hbWVvQW50aHJvcGljIEZpbGVzZ3ZlcnNpb25lMS4wLjBrc3BlY1ZlcnNpb25lMi40LjAAABA4anVtYgAAAChqdW1kYzJjcwARABCAAACqADibcQNjMnBhLnNpZ25hdHVyZQAAABAIY2JvctKEWQISogEmGCFZAgowggIGMIIBjaADAgECAhRA5aAK7sI50L64g/oGQgU9Z1UTADAKBggqhkjOPQQDAzBJMRcwFQYDVQQKEw5BbnRocm9waWMsIFBCQzEuMCwGA1UEAxMlQW50aHJvcGljIENvbnRlbnQgQ3JlZGVudGlhbHMgUm9vdCBDQTAeFw0yNjA4MDcxODQzNTZaFw0yODA4MDYxOTQzNTZaMEQxFzAVBgNVBAoTDkFudGhyb3BpYywgUEJDMSkwJwYDVQQDEyBBbnRocm9waWMgQ2xhdWRlIENvbnRlbnQgU2lnbmluZzBZMBMGByqGSM49AgEGCCqGSM49AwEHA0IABJh6CmvLUBgFFNU0vUKlOVtE6djd17L5SuwX0LemFisBM3dkd/3cyjxFA3Qo5S46fX0/ihY0VZ7mfb9KF703t5OjWDBWMA4GA1UdDwEB/wQEAwIHgDAVBgNVHSUEDjAMBgorBgEEAYPoXgIBMAwGA1UdEwEB/wQCMAAwHwYDVR0jBBgwFoAUzlHiBIFOZFsj+OPEz5o+nMHXXMIwCgYIKoZIzj0EAwMDZwAwZAIwMXMdFJ4BetLLVY7ORuE9noqbbAZOZn/aArXyTwFAZfKrPzxF2vPoJNf1+UCdg1XGAjBwX1zd9WGqYkqmL5SFqw1QySjr1zJfpJM9+1rdDwSPLMOPOjKuiXjoU/pUUeG9RwmhY3BhZFkNngAAAAAAAAAAAAAAAAAAAAAAAAAAAAAAAAAAAAAAAAAAAAAAAAAAAAAAAAAAAAAAAAAAAAAAAAAAAAAAAAAAAAAAAAAAAAAAAAAAAAAAAAAAAAAAAAAAAAAAAAAAAAAAAAAAAAAAAAAAAAAAAAAAAAAAAAAAAAAAAAAAAAAAAAAAAAAAAAAAAAAAAAAAAAAAAAAAAAAAAAAAAAAAAAAAAAAAAAAAAAAAAAAAAAAAAAAAAAAAAAAAAAAAAAAAAAAAAAAAAAAAAAAAAAAAAAAAAAAAAAAAAAAAAAAAAAAAAAAAAAAAAAAAAAAAAAAAAAAAAAAAAAAAAAAAAAAAAAAAAAAAAAAAAAAAAAAAAAAAAAAAAAAAAAAAAAAAAAAAAAAAAAAAAAAAAAAAAAAAAAAAAAAAAAAAAAAAAAAAAAAAAAAAAAAAAAAAAAAAAAAAAAAAAAAAAAAAAAAAAAAAAAAAAAAAAAAAAAAAAAAAAAAAAAAAAAAAAAAAAAAAAAAAAAAAAAAAAAAAAAAAAAAAAAAAAAAAAAAAAAAAAAAAAAAAAAAAAAAAAAAAAAAAAAAAAAAAAAAAAAAAAAAAAAAAAAAAAAAAAAAAAAAAAAAAAAAAAAAAAAAAAAAAAAAAAAAAAAAAAAAAAAAAAAAAAAAAAAAAAAAAAAAAAAAAAAAAAAAAAAAAAAAAAAAAAAAAAAAAAAAAAAAAAAAAAAAAAAAAAAAAAAAAAAAAAAAAAAAAAAAAAAAAAAAAAAAAAAAAAAAAAAAAAAAAAAAAAAAAAAAAAAAAAAAAAAAAAAAAAAAAAAAAAAAAAAAAAAAAAAAAAAAAAAAAAAAAAAAAAAAAAAAAAAAAAAAAAAAAAAAAAAAAAAAAAAAAAAAAAAAAAAAAAAAAAAAAAAAAAAAAAAAAAAAAAAAAAAAAAAAAAAAAAAAAAAAAAAAAAAAAAAAAAAAAAAAAAAAAAAAAAAAAAAAAAAAAAAAAAAAAAAAAAAAAAAAAAAAAAAAAAAAAAAAAAAAAAAAAAAAAAAAAAAAAAAAAAAAAAAAAAAAAAAAAAAAAAAAAAAAAAAAAAAAAAAAAAAAAAAAAAAAAAAAAAAAAAAAAAAAAAAAAAAAAAAAAAAAAAAAAAAAAAAAAAAAAAAAAAAAAAAAAAAAAAAAAAAAAAAAAAAAAAAAAAAAAAAAAAAAAAAAAAAAAAAAAAAAAAAAAAAAAAAAAAAAAAAAAAAAAAAAAAAAAAAAAAAAAAAAAAAAAAAAAAAAAAAAAAAAAAAAAAAAAAAAAAAAAAAAAAAAAAAAAAAAAAAAAAAAAAAAAAAAAAAAAAAAAAAAAAAAAAAAAAAAAAAAAAAAAAAAAAAAAAAAAAAAAAAAAAAAAAAAAAAAAAAAAAAAAAAAAAAAAAAAAAAAAAAAAAAAAAAAAAAAAAAAAAAAAAAAAAAAAAAAAAAAAAAAAAAAAAAAAAAAAAAAAAAAAAAAAAAAAAAAAAAAAAAAAAAAAAAAAAAAAAAAAAAAAAAAAAAAAAAAAAAAAAAAAAAAAAAAAAAAAAAAAAAAAAAAAAAAAAAAAAAAAAAAAAAAAAAAAAAAAAAAAAAAAAAAAAAAAAAAAAAAAAAAAAAAAAAAAAAAAAAAAAAAAAAAAAAAAAAAAAAAAAAAAAAAAAAAAAAAAAAAAAAAAAAAAAAAAAAAAAAAAAAAAAAAAAAAAAAAAAAAAAAAAAAAAAAAAAAAAAAAAAAAAAAAAAAAAAAAAAAAAAAAAAAAAAAAAAAAAAAAAAAAAAAAAAAAAAAAAAAAAAAAAAAAAAAAAAAAAAAAAAAAAAAAAAAAAAAAAAAAAAAAAAAAAAAAAAAAAAAAAAAAAAAAAAAAAAAAAAAAAAAAAAAAAAAAAAAAAAAAAAAAAAAAAAAAAAAAAAAAAAAAAAAAAAAAAAAAAAAAAAAAAAAAAAAAAAAAAAAAAAAAAAAAAAAAAAAAAAAAAAAAAAAAAAAAAAAAAAAAAAAAAAAAAAAAAAAAAAAAAAAAAAAAAAAAAAAAAAAAAAAAAAAAAAAAAAAAAAAAAAAAAAAAAAAAAAAAAAAAAAAAAAAAAAAAAAAAAAAAAAAAAAAAAAAAAAAAAAAAAAAAAAAAAAAAAAAAAAAAAAAAAAAAAAAAAAAAAAAAAAAAAAAAAAAAAAAAAAAAAAAAAAAAAAAAAAAAAAAAAAAAAAAAAAAAAAAAAAAAAAAAAAAAAAAAAAAAAAAAAAAAAAAAAAAAAAAAAAAAAAAAAAAAAAAAAAAAAAAAAAAAAAAAAAAAAAAAAAAAAAAAAAAAAAAAAAAAAAAAAAAAAAAAAAAAAAAAAAAAAAAAAAAAAAAAAAAAAAAAAAAAAAAAAAAAAAAAAAAAAAAAAAAAAAAAAAAAAAAAAAAAAAAAAAAAAAAAAAAAAAAAAAAAAAAAAAAAAAAAAAAAAAAAAAAAAAAAAAAAAAAAAAAAAAAAAAAAAAAAAAAAAAAAAAAAAAAAAAAAAAAAAAAAAAAAAAAAAAAAAAAAAAAAAAAAAAAAAAAAAAAAAAAAAAAAAAAAAAAAAAAAAAAAAAAAAAAAAAAAAAAAAAAAAAAAAAAAAAAAAAAAAAAAAAAAAAAAAAAAAAAAAAAAAAAAAAAAAAAAAAAAAAAAAAAAAAAAAAAAAAAAAAAAAAAAAAAAAAAAAAAAAAAAAAAAAAAAAAAAAAAAAAAAAAAAAAAAAAAAAAAAAAAAAAAAAAAAAAAAAAAAAAAAAAAAAAAAAAAAAAAAAAAAAAAAAAAAAAAAAAAAAAAAAAAAAAAAAAAAAAAAAAAAAAAAAAAAAAAAAAAAAAAAAAAAAAAAAAAAAAAAAAAAAAAAAAAAAAAAAAAAAAAAAAAAAAAAAAAAAAAAAAAAAAAAAAAAAAAAAAAAAAAAAAAAAAAAAAAAAAAAAAAAAAAAAAAAAAAAAAAAAAAAAAAAAAAAAAAAAAAAAAAAAAAAAAAAAAAAAAAAAAAAAAAAAAAAAAAAAAAAAAAAAAAAAAAAAAAAAAAAAAAAAAAAAAAAAAAAAAAAAAAAAAAAAAAAAAAAAAAAAAAAAAAAAAAAAAAAAAAAAAAAAAAAAAAAAAAAAAAAAAAAAAAAAAAAAAAAAAAAAAAAAAAAAAAAAAAAAAAAAAAAAAAAAAAAAAAAAAAAAAAAAAAAAAAAAAAAAAAAAAAAAAAAAAAAAAAAAAAAAAAAAAAAAAAAAAAAAAAAAAAAAAAAAAAAAAAAAAAAAAAAAAAAAAAAAAAAAAAAAAAAAAAAAAAAAAAAAAAAAAAAAAAAAAAAAAAAAAAAAAAAAAAAAAAAAAAAAAAAAAAAAAAAAAAAAAAAAAAAAAAAAAAAAAAAAAAAAAAAAAAAAAAAAAAAAAAAAAAAAAAAAAAAAAAAAAAAAAAAAAAAAAAAAAAAAAAAAAAAAAAAAAAAAAAAAAAAAAAAAAAAAAAAAAAAAAAAAAAAAAAAAAAAAAAAAAAAAAAAAAAAAAAAAAAAAAAAAAAAAAAAAAAAAAAAAAAAAAAAAAAAAAAAAAAAAAAAAAAAAAAAAAAAAAAAAAAAAAAAAAAAAAAAAAAAAAAAAAAAAAAAAAAAAAAAAAAAAAAAAAAAAAAAAAAAAAAAAAAAAAAAAAAAAAAAAAAAAAAAAAAAAAAAAAAAAAAAAAAAAAAAAAAAAAAAAAAAAAAAAAAAAAAAAAAAAAAAAAAAAAAAAAAAAAAAAAAAAAAAAAAAAAAAAAAAAAAAAAAAAAAAAAAAAAAAAAAAAAAAAAAAAAAAAAAAAAAAAAAAAAAAAAAAAAAAAAAAAAAAAAAAAAAAAAAAAAAAAAAAAAAAAAAAAAAAAAAAAAAAAAAAAAAAAAAAAAAAAAAAAAAAAAAAAAAAAAAAAAAAAAAAAAAAAAAAAAAAAAAAAAAAAAAAAAAAAAAAAAAAAAAAAAAAAAAAAAAAAAAAAAAAAAAAAAAAAAAAAAAAAAAAAAAAAAAAAAAAAAAAAAAAAAAAAAAAAAAAAAAAAAAAAAAAAAAAAAAAAAAAAAAAAAAAAAAAAAAAAAAAAAAAAAAAAAAAAAAAAAAAAAAAAAAAAAAAAAAAAAAAAAAAAAAAAAAAAAAAAAAAAAAAAAAAAAAAAAAAAAAAAAAAAAAAAAAAAAAAAAAAAAAAAAAAAAAAAAAAAAAAAAAAAAAAAAAAAAAAAAAAAAAAAAAAAAAAAAAAAAAAAAAAAAAAAAAAAAAAAAAAAAAAAAAAAAAAAAAAAAAAAAAAAAAAAAAAAAAAAAAAAAAAAAAAAAAAAAAAAAAAAAAAAAAAAAAAAAAAAAAAAAAAAAAAAAAAAAAAAAAAAAAAAAAAAAAAAAAAAAAAAAAAAAAAAAAAAAAAAAAAAAAAAAAAAAAAAAAAAAAAAAAAAAAAAAAAAAAAAAAAAAAAAAAAAAAAAAAAAAAAAAAAAAAAAAAAAAAAAAAAAAAAAAAAAAAAAAAAAAAAAAAAAAAAAAAAAAAAAAAAAAAAAAAAAAAAAAAAAAAAAAAAAAAAAAAAAAAAAAAAAAAAAAAAAAAAAAAAAAAAAAAAAAAAAAAAAAAAAAAAAAAAAAAAAAAAAAAAAAAAAAAAAAAAAAAAAAAAAAAAAAAAAAAAAAAAAAAAAAAAAAAAAAAAAAAAAAAAAAAAAAAAAAAAAAAAAAAAAAAAAAAAAAPZYQMgnWVNPHPrIlkFYEG77NU1s2tqfuhNsK5kh8ibOCCQwpTJlJqwZXGbGgJ9nlsvLoII1v5BAdskTEd3ZM5tNvHQ=</c2pa:manifest></metadata><circle cx="200.0" cy="200.0" r="198.0" fill="#5B3A22"></circle><circle cx="200.0" cy="200.0" r="192.0" fill="#6E4629"></circle><circle cx="200.0" cy="200.0" r="178.0" fill="#D89A54"></circle><circle cx="49.5" cy="127.6" r="5.3" fill="#B8742F" opacity="0.55"></circle><circle cx="55.8" cy="123.0" r="4.6" fill="#B8742F" opacity="0.55"></circle><circle cx="267.1" cy="40.2" r="6.5" fill="#B8742F" opacity="0.55"></circle><circle cx="107.3" cy="66.4" r="5.7" fill="#B8742F" opacity="0.55"></circle><circle cx="36.0" cy="178.6" r="4.0" fill="#B8742F" opacity="0.55"></circle><circle cx="200.0" cy="375.3" r="5.1" fill="#B8742F" opacity="0.55"></circle><circle cx="360.7" cy="196.5" r="6.6" fill="#B8742F" opacity="0.55"></circle><circle cx="308.4" cy="69.2" r="5.1" fill="#B8742F" opacity="0.55"></circle><circle cx="78.8" cy="311.5" r="5.4" fill="#B8742F" opacity="0.55"></circle><circle cx="123.9" cy="50.8" r="3.3" fill="#B8742F" opacity="0.55"></circle><circle cx="133.0" cy="42.9" r="5.0" fill="#B8742F" opacity="0.55"></circle><circle cx="315.7" cy="327.9" r="4.8" fill="#B8742F" opacity="0.55"></circle><circle cx="374.5" cy="180.6" r="4.6" fill="#B8742F" opacity="0.55"></circle><circle cx="78.3" cy="95.0" r="4.7" fill="#B8742F" opacity="0.55"></circle><circle cx="362.2" cy="204.1" r="5.3" fill="#B8742F" opacity="0.55"></circle><circle cx="353.8" cy="140.2" r="5.2" fill="#B8742F" opacity="0.55"></circle><circle cx="83.7" cy="330.0" r="5.0" fill="#B8742F" opacity="0.55"></circle><circle cx="133.5" cy="355.3" r="3.7" fill="#B8742F" opacity="0.55"></circle><circle cx="51.8" cy="263.0" r="4.8" fill="#B8742F" opacity="0.55"></circle><circle cx="50.3" cy="112.1" r="6.9" fill="#B8742F" opacity="0.55"></circle><circle cx="290.8" cy="336.2" r="4.7" fill="#B8742F" opacity="0.55"></circle><circle cx="62.9" cy="283.6" r="3.1" fill="#B8742F" opacity="0.55"></circle><circle cx="26.8" cy="203.7" r="3.0" fill="#B8742F" opacity="0.55"></circle><circle cx="107.7" cy="58.8" r="5.1" fill="#B8742F" opacity="0.55"></circle><circle cx="299.7" cy="71.7" r="3.2" fill="#B8742F" opacity="0.55"></circle><circle cx="48.4" cy="131.9" r="3.4" fill="#B8742F" opacity="0.55"></circle><circle cx="69.8" cy="103.8" r="3.4" fill="#B8742F" opacity="0.55"></circle><circle cx="225.8" cy="40.5" r="4.8" fill="#B8742F" opacity="0.55"></circle><circle cx="286.8" cy="349.7" r="7.0" fill="#B8742F" opacity="0.55"></circle><circle cx="358.2" cy="146.0" r="4.9" fill="#B8742F" opacity="0.55"></circle><circle cx="59.3" cy="284.3" r="4.8" fill="#B8742F" opacity="0.55"></circle><circle cx="173.7" cy="368.0" r="4.7" fill="#B8742F" opacity="0.55"></circle><circle cx="270.4" cy="345.9" r="5.0" fill="#B8742F" opacity="0.55"></circle><circle cx="43.5" cy="244.7" r="4.8" fill="#B8742F" opacity="0.55"></circle><circle cx="97.0" cy="60.7" r="5.9" fill="#B8742F" opacity="0.55"></circle><circle cx="228.9" cy="34.6" r="6.6" fill="#B8742F" opacity="0.55"></circle><circle cx="103.8" cy="336.7" r="5.8" fill="#B8742F" opacity="0.55"></circle><circle cx="371.5" cy="205.4" r="4.7" fill="#B8742F" opacity="0.55"></circle><circle cx="118.9" cy="344.0" r="5.6" fill="#B8742F" opacity="0.55"></circle><circle cx="346.7" cy="280.6" r="6.6" fill="#B8742F" opacity="0.55"></circle><circle cx="200.0" cy="200.0" r="158.0" fill="#C23A22"></circle><circle cx="238.3" cy="255.3" r="22.1" fill="#F2C96C"></circle><circle cx="116.2" cy="122.2" r="21.9" fill="#F2C96C"></circle><circle cx="245.7" cy="116.1" r="27.3" fill="#F2C96C"></circle><circle cx="247.9" cy="73.4" r="30.4" fill="#F2C96C"></circle><circle cx="82.5" cy="250.5" r="32.0" fill="#F2C96C"></circle><circle cx="174.2" cy="72.5" r="20.4" fill="#F2C96C"></circle><circle cx="326.3" cy="237.8" r="31.1" fill="#F2C96C"></circle><circle cx="214.3" cy="65.4" r="26.1" fill="#F2C96C"></circle><circle cx="273.2" cy="191.4" r="24.2" fill="#F2C96C"></circle><circle cx="175.0" cy="154.5" r="24.8" fill="#F2C96C"></circle><circle cx="90.6" cy="125.5" r="26.9" fill="#F2C96C"></circle><circle cx="229.1" cy="276.3" r="24.2" fill="#F2C96C"></circle><circle cx="253.4" cy="229.2" r="21.7" fill="#F2C96C"></circle><circle cx="211.2" cy="241.3" r="30.4" fill="#F2C96C"></circle><circle cx="330.0" cy="199.7" r="28.5" fill="#F2C96C"></circle><circle cx="84.1" cy="226.9" r="27.3" fill="#F2C96C"></circle><circle cx="166.3" cy="106.1" r="28.7" fill="#F2C96C"></circle><circle cx="133.1" cy="175.7" r="31.8" fill="#F2C96C"></circle><circle cx="128.1" cy="282.3" r="22.1" fill="#F2C96C"></circle><circle cx="277.0" cy="119.4" r="29.9" fill="#F2C96C"></circle><circle cx="281.2" cy="238.3" r="29.9" fill="#F2C96C"></circle><circle cx="227.5" cy="217.2" r="24.1" fill="#F2C96C"></circle><circle cx="197.3" cy="293.2" r="26.7" fill="#F2C96C"></circle><circle cx="206.4" cy="90.8" r="25.5" fill="#F2C96C"></circle><circle cx="176.7" cy="312.7" r="22.3" fill="#F2C96C"></circle><circle cx="101.8" cy="196.0" r="25.2" fill="#F2C96C"></circle><circle cx="209.1" cy="184.9" r="21.8" fill="#F2C96C"></circle><circle cx="163.3" cy="269.2" r="31.2" fill="#F2C96C"></circle><circle cx="188.0" cy="258.4" r="22.2" fill="#F2C96C"></circle><circle cx="222.4" cy="317.0" r="27.6" fill="#F2C96C"></circle><circle cx="77.1" cy="182.3" r="26.8" fill="#F2C96C"></circle><circle cx="186.0" cy="226.7" r="31.7" fill="#F2C96C"></circle><circle cx="82.6" cy="149.1" r="29.5" fill="#F2C96C"></circle><circle cx="114.6" cy="264.5" r="24.3" fill="#F2C96C"></circle><circle cx="177.7" cy="222.0" r="10.3" fill="#F8E1A0"></circle><circle cx="274.0" cy="225.0" r="14.6" fill="#F8E1A0"></circle><circle cx="229.6" cy="190.3" r="10.0" fill="#F8E1A0"></circle><circle cx="249.6" cy="300.0" r="10.0" fill="#F8E1A0"></circle><circle cx="161.4" cy="246.4" r="12.9" fill="#F8E1A0"></circle><circle cx="125.2" cy="147.0" r="12.7" fill="#F8E1A0"></circle><circle cx="246.4" cy="276.1" r="11.3" fill="#F8E1A0"></circle><circle cx="201.4" cy="104.2" r="12.4" fill="#F8E1A0"></circle><circle cx="222.4" cy="70.7" r="8.2" fill="#F8E1A0"></circle><circle cx="261.0" cy="316.3" r="8.0" fill="#F8E1A0"></circle><circle cx="68.4" cy="188.9" r="8.2" fill="#F8E1A0"></circle><circle cx="293.1" cy="274.0" r="8.4" fill="#F8E1A0"></circle><circle cx="171.9" cy="269.9" r="14.2" fill="#F8E1A0"></circle><circle cx="122.0" cy="93.3" r="15.8" fill="#F8E1A0"></circle><circle cx="124.7" cy="310.0" r="9.0" fill="#F8E1A0"></circle><circle cx="120.3" cy="125.4" r="11.1" fill="#F8E1A0"></circle><circle cx="184.8" cy="196.9" r="8.1" fill="#F8E1A0"></circle><circle cx="184.8" cy="159.1" r="11.5" fill="#F8E1A0"></circle><circle cx="216.8" cy="281.8" r="13.3" fill="#F8E1A0"></circle><circle cx="259.6" cy="188.2" r="13.0" fill="#F8E1A0"></circle><circle cx="266.2" cy="122.3" r="15.2" fill="#F8E1A0"></circle><circle cx="312.4" cy="257.2" r="12.4" fill="#F8E1A0"></circle><circle cx="327.3" cy="213.9" r="8.4" fill="#F8E1A0"></circle><circle cx="187.9" cy="117.1" r="11.0" fill="#F8E1A0"></circle><circle cx="101.9" cy="101.5" r="11.7" fill="#F8E1A0"></circle><circle cx="230.2" cy="255.8" r="10.7" fill="#F8E1A0"></circle><circle cx="312.9" cy="224.9" r="5.2" fill="#C9481F" opacity="0.6"></circle><circle cx="77.3" cy="208.6" r="7.4" fill="#C9481F" opacity="0.6"></circle><circle cx="174.4" cy="229.2" r="4.7" fill="#C9481F" opacity="0.6"></circle><circle cx="194.1" cy="261.0" r="6.5" fill="#C9481F" opacity="0.6"></circle><circle cx="144.5" cy="214.0" r="4.1" fill="#C9481F" opacity="0.6"></circle><circle cx="293.1" cy="250.1" r="6.4" fill="#C9481F" opacity="0.6"></circle><circle cx="229.9" cy="236.5" r="5.8" fill="#C9481F" opacity="0.6"></circle><circle cx="289.2" cy="284.2" r="7.6" fill="#C9481F" opacity="0.6"></circle><circle cx="245.8" cy="76.8" r="7.3" fill="#C9481F" opacity="0.6"></circle><circle cx="96.6" cy="146.7" r="7.1" fill="#C9481F" opacity="0.6"></circle><circle cx="202.2" cy="104.5" r="5.4" fill="#C9481F" opacity="0.6"></circle><circle cx="76.9" cy="192.5" r="6.7" fill="#C9481F" opacity="0.6"></circle><circle cx="124.1" cy="115.1" r="4.6" fill="#C9481F" opacity="0.6"></circle><circle cx="135.2" cy="115.0" r="6.0" fill="#C9481F" opacity="0.6"></circle><circle cx="218.2" cy="278.7" r="5.6" fill="#C9481F" opacity="0.6"></circle><circle cx="165.9" cy="111.9" r="5.9" fill="#C9481F" opacity="0.6"></circle><circle cx="256.2" cy="130.6" r="5.1" fill="#C9481F" opacity="0.6"></circle><circle cx="175.9" cy="156.6" r="4.8" fill="#C9481F" opacity="0.6"></circle><circle cx="97.3" cy="187.1" r="22.0" fill="#9E2418"></circle><circle cx="97.3" cy="187.1" r="19.0" fill="#B32C1C"></circle><circle cx="109.5" cy="200.0" r="2.3" fill="#F0B27A" opacity="0.8"></circle><circle cx="103.9" cy="196.5" r="2.4" fill="#F0B27A" opacity="0.8"></circle><circle cx="87.6" cy="191.3" r="2.2" fill="#F0B27A" opacity="0.8"></circle><circle cx="106.7" cy="179.5" r="1.5" fill="#F0B27A" opacity="0.8"></circle><circle cx="88.8" cy="178.4" r="2.1" fill="#F0B27A" opacity="0.8"></circle><circle cx="153.6" cy="182.8" r="22.0" fill="#9E2418"></circle><circle cx="153.6" cy="182.8" r="19.0" fill="#B32C1C"></circle><circle cx="145.9" cy="178.4" r="2.4" fill="#F0B27A" opacity="0.8"></circle><circle cx="144.5" cy="182.4" r="2.0" fill="#F0B27A" opacity="0.8"></circle><circle cx="140.6" cy="187.4" r="2.3" fill="#F0B27A" opacity="0.8"></circle><circle cx="160.9" cy="192.8" r="1.6" fill="#F0B27A" opacity="0.8"></circle><circle cx="159.3" cy="181.8" r="2.8" fill="#F0B27A" opacity="0.8"></circle><circle cx="242.7" cy="182.6" r="22.0" fill="#9E2418"></circle><circle cx="242.7" cy="182.6" r="19.0" fill="#B32C1C"></circle><circle cx="232.6" cy="191.6" r="2.1" fill="#F0B27A" opacity="0.8"></circle><circle cx="232.0" cy="181.6" r="2.8" fill="#F0B27A" opacity="0.8"></circle><circle cx="231.5" cy="179.4" r="1.6" fill="#F0B27A" opacity="0.8"></circle><circle cx="229.7" cy="191.2" r="2.3" fill="#F0B27A" opacity="0.8"></circle><circle cx="244.6" cy="193.2" r="1.6" fill="#F0B27A" opacity="0.8"></circle><circle cx="98.6" cy="227.6" r="22.0" fill="#9E2418"></circle><circle cx="98.6" cy="227.6" r="19.0" fill="#B32C1C"></circle><circle cx="110.4" cy="234.3" r="2.8" fill="#F0B27A" opacity="0.8"></circle><circle cx="107.0" cy="224.8" r="1.5" fill="#F0B27A" opacity="0.8"></circle><circle cx="111.8" cy="231.1" r="2.6" fill="#F0B27A" opacity="0.8"></circle><circle cx="103.8" cy="222.3" r="2.5" fill="#F0B27A" opacity="0.8"></circle><circle cx="97.3" cy="220.4" r="2.2" fill="#F0B27A" opacity="0.8"></circle><circle cx="290.8" cy="182.4" r="22.0" fill="#9E2418"></circle><circle cx="290.8" cy="182.4" r="19.0" fill="#B32C1C"></circle><circle cx="289.9" cy="177.1" r="2.6" fill="#F0B27A" opacity="0.8"></circle><circle cx="301.6" cy="185.0" r="1.5" fill="#F0B27A" opacity="0.8"></circle><circle cx="291.9" cy="185.8" r="2.7" fill="#F0B27A" opacity="0.8"></circle><circle cx="285.6" cy="175.4" r="2.1" fill="#F0B27A" opacity="0.8"></circle><circle cx="281.8" cy="189.7" r="1.5" fill="#F0B27A" opacity="0.8"></circle><circle cx="117.7" cy="277.1" r="22.0" fill="#9E2418"></circle><circle cx="117.7" cy="277.1" r="19.0" fill="#B32C1C"></circle><circle cx="119.4" cy="285.9" r="1.5" fill="#F0B27A" opacity="0.8"></circle><circle cx="108.9" cy="290.1" r="2.0" fill="#F0B27A" opacity="0.8"></circle><circle cx="124.8" cy="264.7" r="2.2" fill="#F0B27A" opacity="0.8"></circle><circle cx="105.7" cy="270.4" r="1.5" fill="#F0B27A" opacity="0.8"></circle><circle cx="122.5" cy="275.9" r="2.0" fill="#F0B27A" opacity="0.8"></circle><circle cx="228.1" cy="80.9" r="22.0" fill="#9E2418"></circle><circle cx="228.1" cy="80.9" r="19.0" fill="#B32C1C"></circle><circle cx="226.0" cy="85.7" r="1.9" fill="#F0B27A" opacity="0.8"></circle><circle cx="219.0" cy="68.8" r="2.5" fill="#F0B27A" opacity="0.8"></circle><circle cx="232.5" cy="74.0" r="2.3" fill="#F0B27A" opacity="0.8"></circle><circle cx="240.5" cy="80.2" r="2.6" fill="#F0B27A" opacity="0.8"></circle><circle cx="224.2" cy="82.3" r="2.7" fill="#F0B27A" opacity="0.8"></circle><circle cx="191.8" cy="155.0" r="22.0" fill="#9E2418"></circle><circle cx="191.8" cy="155.0" r="19.0" fill="#B32C1C"></circle><circle cx="197.1" cy="157.6" r="1.9" fill="#F0B27A" opacity="0.8"></circle><circle cx="180.1" cy="154.5" r="2.6" fill="#F0B27A" opacity="0.8"></circle><circle cx="188.1" cy="161.0" r="2.2" fill="#F0B27A" opacity="0.8"></circle><circle cx="180.5" cy="157.1" r="2.3" fill="#F0B27A" opacity="0.8"></circle><circle cx="187.1" cy="147.1" r="3.0" fill="#F0B27A" opacity="0.8"></circle><circle cx="270.5" cy="232.0" r="22.0" fill="#9E2418"></circle><circle cx="270.5" cy="232.0" r="19.0" fill="#B32C1C"></circle><circle cx="272.8" cy="237.9" r="1.6" fill="#F0B27A" opacity="0.8"></circle><circle cx="276.7" cy="223.1" r="2.2" fill="#F0B27A" opacity="0.8"></circle><circle cx="267.7" cy="229.1" r="2.7" fill="#F0B27A" opacity="0.8"></circle><circle cx="262.7" cy="243.8" r="2.8" fill="#F0B27A" opacity="0.8"></circle><circle cx="270.3" cy="242.0" r="2.3" fill="#F0B27A" opacity="0.8"></circle><circle cx="244.1" cy="316.8" r="22.0" fill="#9E2418"></circle><circle cx="244.1" cy="316.8" r="19.0" fill="#B32C1C"></circle><circle cx="255.2" cy="316.5" r="3.0" fill="#F0B27A" opacity="0.8"></circle><circle cx="250.6" cy="321.0" r="3.0" fill="#F0B27A" opacity="0.8"></circle><circle cx="249.3" cy="310.1" r="2.5" fill="#F0B27A" opacity="0.8"></circle><circle cx="235.4" cy="314.3" r="2.6" fill="#F0B27A" opacity="0.8"></circle><circle cx="236.0" cy="314.8" r="1.8" fill="#F0B27A" opacity="0.8"></circle><circle cx="202.7" cy="250.5" r="22.0" fill="#9E2418"></circle><circle cx="202.7" cy="250.5" r="19.0" fill="#B32C1C"></circle><circle cx="200.4" cy="243.4" r="2.6" fill="#F0B27A" opacity="0.8"></circle><circle cx="211.5" cy="250.0" r="2.6" fill="#F0B27A" opacity="0.8"></circle><circle cx="209.4" cy="258.6" r="2.7" fill="#F0B27A" opacity="0.8"></circle><circle cx="206.9" cy="256.8" r="2.6" fill="#F0B27A" opacity="0.8"></circle><circle cx="203.3" cy="258.3" r="1.8" fill="#F0B27A" opacity="0.8"></circle><circle cx="113.5" cy="138.6" r="22.0" fill="#9E2418"></circle><circle cx="113.5" cy="138.6" r="19.0" fill="#B32C1C"></circle><circle cx="119.3" cy="142.3" r="2.3" fill="#F0B27A" opacity="0.8"></circle><circle cx="116.3" cy="149.7" r="2.7" fill="#F0B27A" opacity="0.8"></circle><circle cx="118.6" cy="149.2" r="2.8" fill="#F0B27A" opacity="0.8"></circle><circle cx="109.0" cy="148.2" r="2.8" fill="#F0B27A" opacity="0.8"></circle><circle cx="115.7" cy="149.9" r="1.8" fill="#F0B27A" opacity="0.8"></circle><circle cx="233.1" cy="127.7" r="22.0" fill="#9E2418"></circle><circle cx="233.1" cy="127.7" r="19.0" fill="#B32C1C"></circle><circle cx="241.0" cy="120.9" r="2.1" fill="#F0B27A" opacity="0.8"></circle><circle cx="233.3" cy="125.6" r="2.3" fill="#F0B27A" opacity="0.8"></circle><circle cx="222.3" cy="116.0" r="2.6" fill="#F0B27A" opacity="0.8"></circle><circle cx="227.0" cy="121.8" r="2.6" fill="#F0B27A" opacity="0.8"></circle><circle cx="239.8" cy="128.6" r="2.7" fill="#F0B27A" opacity="0.8"></circle><line x1="366.6" y1="233.8" x2="33.4" y2="166.2" stroke="#8A4A1C" stroke-width="2.5" opacity="0.35"></line><line x1="293.9" y1="341.7" x2="106.1" y2="58.3" stroke="#8A4A1C" stroke-width="2.5" opacity="0.35"></line><line x1="166.2" y1="366.6" x2="233.8" y2="33.4" stroke="#8A4A1C" stroke-width="2.5" opacity="0.35"></line><line x1="58.3" y1="293.9" x2="341.7" y2="106.1" stroke="#8A4A1C" stroke-width="2.5" opacity="0.35"></line></svg>