<svg xmlns="http://www.w3.org/2000/svg" viewBox="0 0 400 400"><circle cx="200.0" cy="200.0" r="198.0" fill="#5B3A22"></circle><circle cx="200.0" cy="200.0" r="192.0" fill="#6E4629"></circle><circle cx="200.0" cy="200.0" r="178.0" fill="#D89A54"></circle><circle cx="177.0" cy="366.4" r="6.9" fill="#B8742F" opacity="0.55"></circle><circle cx="344.2" cy="281.5" r="6.4" fill="#B8742F" opacity="0.55"></circle><circle cx="343.9" cy="270.3" r="3.4" fill="#B8742F" opacity="0.55"></circle><circle cx="165.8" cy="358.3" r="5.4" fill="#B8742F" opacity="0.55"></circle><circle cx="135.6" cy="359.5" r="6.1" fill="#B8742F" opacity="0.55"></circle><circle cx="365.9" cy="237.9" r="6.6" fill="#B8742F" opacity="0.55"></circle><circle cx="314.3" cy="329.7" r="3.3" fill="#B8742F" opacity="0.55"></circle><circle cx="186.6" cy="37.0" r="3.5" fill="#B8742F" opacity="0.55"></circle><circle cx="299.2" cy="59.9" r="4.6" fill="#B8742F" opacity="0.55"></circle><circle cx="348.6" cy="275.6" r="5.4" fill="#B8742F" opacity="0.55"></circle><circle cx="146.4" cy="33.6" r="3.3" fill="#B8742F" opacity="0.55"></circle><circle cx="277.1" cy="345.0" r="5.8" fill="#B8742F" opacity="0.55"></circle><circle cx="227.5" cy="26.7" r="6.0" fill="#B8742F" opacity="0.55"></circle><circle cx="334.3" cy="289.7" r="4.8" fill="#B8742F" opacity="0.55"></circle><circle cx="201.2" cy="34.8" r="6.4" fill="#B8742F" opacity="0.55"></circle><circle cx="68.1" cy="313.7" r="4.6" fill="#B8742F" opacity="0.55"></circle><circle cx="195.5" cy="29.3" r="6.3" fill="#B8742F" opacity="0.55"></circle><circle cx="315.8" cy="73.0" r="4.5" fill="#B8742F" opacity="0.55"></circle><circle cx="263.0" cy="41.6" r="4.6" fill="#B8742F" opacity="0.55"></circle><circle cx="65.8" cy="111.1" r="4.5" fill="#B8742F" opacity="0.55"></circle><circle cx="347.2" cy="106.0" r="5.8" fill="#B8742F" opacity="0.55"></circle><circle cx="98.8" cy="336.8" r="6.5" fill="#B8742F" opacity="0.55"></circle><circle cx="367.2" cy="217.8" r="3.3" fill="#B8742F" opacity="0.55"></circle><circle cx="82.2" cy="84.6" r="5.4" fill="#B8742F" opacity="0.55"></circle><circle cx="51.0" cy="288.8" r="6.3" fill="#B8742F" opacity="0.55"></circle><circle cx="303.9" cy="331.3" r="5.8" fill="#B8742F" opacity="0.55"></circle><circle cx="342.4" cy="285.9" r="3.9" fill="#B8742F" opacity="0.55"></circle><circle cx="325.7" cy="85.6" r="4.5" fill="#B8742F" opacity="0.55"></circle><circle cx="370.9" cy="231.5" r="6.5" fill="#B8742F" opacity="0.55"></circle><circle cx="108.2" cy="58.7" r="3.9" fill="#B8742F" opacity="0.55"></circle><circle cx="160.5" cy="360.2" r="6.8" fill="#B8742F" opacity="0.55"></circle><circle cx="269.7" cy="355.2" r="4.6" fill="#B8742F" opacity="0.55"></circle><circle cx="366.7" cy="253.9" r="5.1" fill="#B8742F" opacity="0.55"></circle><circle cx="335.9" cy="302.4" r="5.8" fill="#B8742F" opacity="0.55"></circle><circle cx="52.5" cy="123.8" r="5.7" fill="#B8742F" opacity="0.55"></circle><circle cx="170.4" cy="364.6" r="5.4" fill="#B8742F" opacity="0.55"></circle><circle cx="116.1" cy="354.2" r="6.5" fill="#B8742F" opacity="0.55"></circle><circle cx="96.7" cy="66.9" r="5.6" fill="#B8742F" opacity="0.55"></circle><circle cx="112.8" cy="56.3" r="6.7" fill="#B8742F" opacity="0.55"></circle><circle cx="295.3" cy="329.0" r="5.6" fill="#B8742F" opacity="0.55"></circle><circle cx="200.0" cy="200.0" r="158.0" fill="#C23A22"></circle><circle cx="172.0" cy="182.8" r="25.1" fill="#F2C96C"></circle><circle cx="255.5" cy="164.1" r="22.1" fill="#F2C96C"></circle><circle cx="204.7" cy="230.3" r="21.9" fill="#F2C96C"></circle><circle cx="139.2" cy="142.0" r="21.3" fill="#F2C96C"></circle><circle cx="128.4" cy="98.2" r="28.2" fill="#F2C96C"></circle><circle cx="315.5" cy="155.7" r="24.5" fill="#F2C96C"></circle><circle cx="245.0" cy="127.6" r="31.9" fill="#F2C96C"></circle><circle cx="314.4" cy="239.7" r="31.0" fill="#F2C96C"></circle><circle cx="293.8" cy="197.1" r="23.4" fill="#F2C96C"></circle><circle cx="283.7" cy="138.6" r="21.2" fill="#F2C96C"></circle><circle cx="105.4" cy="283.1" r="30.0" fill="#F2C96C"></circle><circle cx="276.8" cy="231.7" r="30.2" fill="#F2C96C"></circle><circle cx="186.8" cy="162.8" r="24.4" fill="#F2C96C"></circle><circle cx="118.8" cy="171.5" r="29.1" fill="#F2C96C"></circle><circle cx="216.4" cy="286.4" r="31.3" fill="#F2C96C"></circle><circle cx="195.3" cy="87.1" r="25.4" fill="#F2C96C"></circle><circle cx="97.9" cy="134.0" r="25.3" fill="#F2C96C"></circle><circle cx="111.4" cy="256.7" r="27.4" fill="#F2C96C"></circle><circle cx="291.0" cy="265.5" r="30.1" fill="#F2C96C"></circle><circle cx="240.7" cy="69.3" r="28.4" fill="#F2C96C"></circle><circle cx="177.1" cy="65.7" r="31.9" fill="#F2C96C"></circle><circle cx="275.2" cy="115.8" r="21.7" fill="#F2C96C"></circle><circle cx="163.2" cy="162.3" r="21.1" fill="#F2C96C"></circle><circle cx="185.8" cy="213.1" r="21.4" fill="#F2C96C"></circle><circle cx="216.9" cy="174.6" r="31.3" fill="#F2C96C"></circle><circle cx="131.7" cy="242.3" r="23.6" fill="#F2C96C"></circle><circle cx="128.1" cy="198.8" r="20.9" fill="#F2C96C"></circle><circle cx="149.8" cy="121.4" r="21.8" fill="#F2C96C"></circle><circle cx="212.8" cy="73.5" r="20.3" fill="#F2C96C"></circle><circle cx="155.8" cy="209.7" r="26.4" fill="#F2C96C"></circle><circle cx="72.5" cy="183.8" r="27.6" fill="#F2C96C"></circle><circle cx="300.5" cy="293.7" r="23.4" fill="#F2C96C"></circle><circle cx="152.1" cy="268.4" r="20.2" fill="#F2C96C"></circle><circle cx="143.1" cy="292.8" r="20.5" fill="#F2C96C"></circle><circle cx="198.3" cy="195.8" r="10.7" fill="#F8E1A0"></circle><circle cx="206.7" cy="293.5" r="14.8" fill="#F8E1A0"></circle><circle cx="85.4" cy="271.5" r="14.0" fill="#F8E1A0"></circle><circle cx="290.4" cy="159.2" r="14.3" fill="#F8E1A0"></circle><circle cx="137.0" cy="145.0" r="10.7" fill="#F8E1A0"></circle><circle cx="179.2" cy="173.9" r="12.1" fill="#F8E1A0"></circle><circle cx="248.3" cy="317.6" r="14.2" fill="#F8E1A0"></circle><circle cx="104.9" cy="225.4" r="15.3" fill="#F8E1A0"></circle><circle cx="256.1" cy="101.8" r="11.9" fill="#F8E1A0"></circle><circle cx="245.6" cy="284.0" r="13.7" fill="#F8E1A0"></circle><circle cx="250.7" cy="134.5" r="12.5" fill="#F8E1A0"></circle><circle cx="258.9" cy="181.7" r="9.8" fill="#F8E1A0"></circle><circle cx="151.6" cy="237.3" r="15.0" fill="#F8E1A0"></circle><circle cx="186.7" cy="264.3" r="12.3" fill="#F8E1A0"></circle><circle cx="130.3" cy="100.8" r="9.4" fill="#F8E1A0"></circle><circle cx="237.2" cy="163.4" r="12.6" fill="#F8E1A0"></circle><circle cx="316.0" cy="196.8" r="14.9" fill="#F8E1A0"></circle><circle cx="185.6" cy="313.9" r="9.3" fill="#F8E1A0"></circle><circle cx="193.9" cy="240.5" r="9.3" fill="#F8E1A0"></circle><circle cx="227.7" cy="326.7" r="13.1" fill="#F8E1A0"></circle><circle cx="121.4" cy="281.3" r="9.1" fill="#F8E1A0"></circle><circle cx="135.7" cy="221.7" r="14.1" fill="#F8E1A0"></circle><circle cx="285.3" cy="291.0" r="12.9" fill="#F8E1A0"></circle><circle cx="156.3" cy="307.3" r="11.8" fill="#F8E1A0"></circle><circle cx="319.9" cy="140.2" r="11.6" fill="#F8E1A0"></circle><circle cx="155.4" cy="111.2" r="15.8" fill="#F8E1A0"></circle><circle cx="163.4" cy="303.6" r="7.7" fill="#C9481F" opacity="0.6"></circle><circle cx="69.9" cy="259.1" r="7.0" fill="#C9481F" opacity="0.6"></circle><circle cx="192.9" cy="206.6" r="7.4" fill="#C9481F" opacity="0.6"></circle><circle cx="98.8" cy="236.9" r="5.1" fill="#C9481F" opacity="0.6"></circle><circle cx="198.3" cy="83.5" r="6.0" fill="#C9481F" opacity="0.6"></circle><circle cx="254.7" cy="153.2" r="5.9" fill="#C9481F" opacity="0.6"></circle><circle cx="110.7" cy="101.1" r="7.8" fill="#C9481F" opacity="0.6"></circle><circle cx="300.1" cy="115.4" r="4.9" fill="#C9481F" opacity="0.6"></circle><circle cx="149.3" cy="120.2" r="6.9" fill="#C9481F" opacity="0.6"></circle><circle cx="311.4" cy="141.5" r="6.7" fill="#C9481F" opacity="0.6"></circle><circle cx="71.4" cy="259.1" r="5.4" fill="#C9481F" opacity="0.6"></circle><circle cx="306.0" cy="102.8" r="7.7" fill="#C9481F" opacity="0.6"></circle><circle cx="334.9" cy="155.6" r="7.6" fill="#C9481F" opacity="0.6"></circle><circle cx="120.0" cy="246.5" r="5.0" fill="#C9481F" opacity="0.6"></circle><circle cx="224.1" cy="196.2" r="5.3" fill="#C9481F" opacity="0.6"></circle><circle cx="325.3" cy="156.7" r="6.6" fill="#C9481F" opacity="0.6"></circle><circle cx="242.7" cy="307.6" r="4.5" fill="#C9481F" opacity="0.6"></circle><circle cx="108.1" cy="286.4" r="5.1" fill="#C9481F" opacity="0.6"></circle><circle cx="280.4" cy="271.7" r="20.0" fill="#9E2418"></circle><circle cx="280.4" cy="271.7" r="17.0" fill="#B32C1C"></circle><circle cx="292.4" cy="272.2" r="2.7" fill="#F0B27A" opacity="0.8"></circle><circle cx="275.7" cy="279.0" r="2.3" fill="#F0B27A" opacity="0.8"></circle><circle cx="289.0" cy="282.6" r="1.8" fill="#F0B27A" opacity="0.8"></circle><circle cx="289.8" cy="274.9" r="2.8" fill="#F0B27A" opacity="0.8"></circle><circle cx="269.5" cy="279.8" r="2.6" fill="#F0B27A" opacity="0.8"></circle><circle cx="159.6" cy="202.5" r="20.0" fill="#9E2418"></circle><circle cx="159.6" cy="202.5" r="17.0" fill="#B32C1C"></circle><circle cx="168.1" cy="197.3" r="2.0" fill="#F0B27A" opacity="0.8"></circle><circle cx="163.2" cy="199.0" r="2.3" fill="#F0B27A" opacity="0.8"></circle><circle cx="167.6" cy="199.6" r="3.0" fill="#F0B27A" opacity="0.8"></circle><circle cx="169.0" cy="208.2" r="2.8" fill="#F0B27A" opacity="0.8"></circle><circle cx="148.0" cy="205.5" r="2.9" fill="#F0B27A" opacity="0.8"></circle><circle cx="249.2" cy="119.6" r="20.0" fill="#9E2418"></circle><circle cx="249.2" cy="119.6" r="17.0" fill="#B32C1C"></circle><circle cx="245.4" cy="122.1" r="1.6" fill="#F0B27A" opacity="0.8"></circle><circle cx="255.5" cy="112.9" r="3.0" fill="#F0B27A" opacity="0.8"></circle><circle cx="251.9" cy="108.8" r="2.3" fill="#F0B27A" opacity="0.8"></circle><circle cx="240.2" cy="115.4" r="2.5" fill="#F0B27A" opacity="0.8"></circle><circle cx="239.2" cy="127.5" r="2.5" fill="#F0B27A" opacity="0.8"></circle><circle cx="165.3" cy="147.6" r="20.0" fill="#9E2418"></circle><circle cx="165.3" cy="147.6" r="17.0" fill="#B32C1C"></circle><circle cx="169.5" cy="143.4" r="1.7" fill="#F0B27A" opacity="0.8"></circle><circle cx="166.1" cy="151.7" r="2.9" fill="#F0B27A" opacity="0.8"></circle><circle cx="169.1" cy="153.6" r="2.2" fill="#F0B27A" opacity="0.8"></circle><circle cx="158.8" cy="148.6" r="2.9" fill="#F0B27A" opacity="0.8"></circle><circle cx="166.5" cy="137.0" r="2.5" fill="#F0B27A" opacity="0.8"></circle><circle cx="232.9" cy="195.9" r="20.0" fill="#9E2418"></circle><circle cx="232.9" cy="195.9" r="17.0" fill="#B32C1C"></circle><circle cx="241.5" cy="195.6" r="2.5" fill="#F0B27A" opacity="0.8"></circle><circle cx="224.8" cy="200.1" r="2.3" fill="#F0B27A" opacity="0.8"></circle><circle cx="240.1" cy="195.8" r="2.2" fill="#F0B27A" opacity="0.8"></circle><circle cx="231.5" cy="205.2" r="3.0" fill="#F0B27A" opacity="0.8"></circle><circle cx="233.5" cy="189.8" r="2.6" fill="#F0B27A" opacity="0.8"></circle><circle cx="276.5" cy="223.1" r="20.0" fill="#9E2418"></circle><circle cx="276.5" cy="223.1" r="17.0" fill="#B32C1C"></circle><circle cx="270.6" cy="232.4" r="1.7" fill="#F0B27A" opacity="0.8"></circle><circle cx="274.0" cy="233.0" r="1.6" fill="#F0B27A" opacity="0.8"></circle><circle cx="284.4" cy="225.6" r="2.6" fill="#F0B27A" opacity="0.8"></circle><circle cx="266.0" cy="228.8" r="2.9" fill="#F0B27A" opacity="0.8"></circle><circle cx="264.9" cy="216.7" r="2.7" fill="#F0B27A" opacity="0.8"></circle><circle cx="204.0" cy="105.3" r="20.0" fill="#9E2418"></circle><circle cx="204.0" cy="105.3" r="17.0" fill="#B32C1C"></circle><circle cx="211.1" cy="107.4" r="2.9" fill="#F0B27A" opacity="0.8"></circle><circle cx="205.8" cy="98.8" r="2.7" fill="#F0B27A" opacity="0.8"></circle><circle cx="199.1" cy="98.7" r="1.9" fill="#F0B27A" opacity="0.8"></circle><circle cx="195.9" cy="98.1" r="2.7" fill="#F0B27A" opacity="0.8"></circle><circle cx="202.7" cy="93.3" r="2.9" fill="#F0B27A" opacity="0.8"></circle><circle cx="128.9" cy="113.0" r="20.0" fill="#9E2418"></circle><circle cx="128.9" cy="113.0" r="17.0" fill="#B32C1C"></circle><circle cx="120.6" cy="107.3" r="2.3" fill="#F0B27A" opacity="0.8"></circle><circle cx="125.4" cy="123.2" r="2.7" fill="#F0B27A" opacity="0.8"></circle><circle cx="137.9" cy="112.5" r="1.6" fill="#F0B27A" opacity="0.8"></circle><circle cx="123.0" cy="104.6" r="1.6" fill="#F0B27A" opacity="0.8"></circle><circle cx="126.9" cy="107.3" r="1.8" fill="#F0B27A" opacity="0.8"></circle><circle cx="121.5" cy="215.5" r="20.0" fill="#9E2418"></circle><circle cx="121.5" cy="215.5" r="17.0" fill="#B32C1C"></circle><circle cx="110.5" cy="208.8" r="3.0" fill="#F0B27A" opacity="0.8"></circle><circle cx="117.6" cy="220.5" r="2.1" fill="#F0B27A" opacity="0.8"></circle><circle cx="117.5" cy="213.3" r="2.2" fill="#F0B27A" opacity="0.8"></circle><circle cx="119.5" cy="225.8" r="1.6" fill="#F0B27A" opacity="0.8"></circle><circle cx="129.5" cy="220.7" r="2.8" fill="#F0B27A" opacity="0.8"></circle><circle cx="227.5" cy="248.1" r="20.0" fill="#9E2418"></circle><circle cx="227.5" cy="248.1" r="17.0" fill="#B32C1C"></circle><circle cx="234.4" cy="256.8" r="1.6" fill="#F0B27A" opacity="0.8"></circle><circle cx="223.8" cy="250.8" r="2.8" fill="#F0B27A" opacity="0.8"></circle><circle cx="215.7" cy="244.5" r="1.8" fill="#F0B27A" opacity="0.8"></circle><circle cx="222.1" cy="254.9" r="2.4" fill="#F0B27A" opacity="0.8"></circle><circle cx="238.8" cy="250.0" r="1.6" fill="#F0B27A" opacity="0.8"></circle><circle cx="106.6" cy="173.5" r="20.0" fill="#9E2418"></circle><circle cx="106.6" cy="173.5" r="17.0" fill="#B32C1C"></circle><circle cx="100.6" cy="169.9" r="1.7" fill="#F0B27A" opacity="0.8"></circle><circle cx="113.3" cy="185.0" r="2.9" fill="#F0B27A" opacity="0.8"></circle><circle cx="94.9" cy="181.1" r="2.9" fill="#F0B27A" opacity="0.8"></circle><circle cx="99.8" cy="167.2" r="1.8" fill="#F0B27A" opacity="0.8"></circle><circle cx="104.4" cy="182.3" r="2.7" fill="#F0B27A" opacity="0.8"></circle><circle cx="231.9" cy="230.2" r="8.0" fill="none" stroke="#E0461C" stroke-width="4"></circle><circle cx="233.7" cy="87.5" r="8.0" fill="none" stroke="#E0461C" stroke-width="4"></circle><circle cx="217.7" cy="133.3" r="8.0" fill="none" stroke="#E0461C" stroke-width="4"></circle><circle cx="84.3" cy="190.9" r="8.0" fill="none" stroke="#E0461C" stroke-width="4"></circle><circle cx="280.3" cy="190.5" r="8.0" fill="none" stroke="#E0461C" stroke-width="4"></circle><circle cx="109.1" cy="132.2" r="8.0" fill="none" stroke="#E0461C" stroke-width="4"></circle><circle cx="238.3" cy="186.2" r="8.0" fill="none" stroke="#E0461C" stroke-width="4"></circle><circle cx="252.5" cy="251.1" r="8.0" fill="none" stroke="#E0461C" stroke-width="4"></circle><circle cx="236.2" cy="317.0" r="8.0" fill="none" stroke="#E0461C" stroke-width="4"></circle><circle cx="228.4" cy="272.1" r="8.0" fill="none" stroke="#E0461C" stroke-width="4"></circle><circle cx="178.5" cy="309.2" r="8.0" fill="none" stroke="#E0461C" stroke-width="4"></circle><circle cx="158.2" cy="135.4" r="8.0" fill="none" stroke="#E0461C" stroke-width="4"></circle><circle cx="292.2" cy="275.5" r="8.0" fill="none" stroke="#E0461C" stroke-width="4"></circle><circle cx="318.2" cy="212.0" r="8.0" fill="none" stroke="#E0461C" stroke-width="4"></circle><circle cx="188.4" cy="215.2" r="11.0" fill="none" stroke="#4E8B3A" stroke-width="5"></circle><circle cx="285.5" cy="170.5" r="11.0" fill="none" stroke="#4E8B3A" stroke-width="5"></circle><circle cx="229.5" cy="121.0" r="11.0" fill="none" stroke="#4E8B3A" stroke-width="5"></circle><circle cx="234.9" cy="242.7" r="11.0" fill="none" stroke="#4E8B3A" stroke-width="5"></circle><circle cx="131.2" cy="144.3" r="11.0" fill="none" stroke="#4E8B3A" stroke-width="5"></circle><circle cx="90.8" cy="222.2" r="11.0" fill="none" stroke="#4E8B3A" stroke-width="5"></circle><circle cx="174.6" cy="103.7" r="11.0" fill="none" stroke="#4E8B3A" stroke-width="5"></circle><circle cx="161.8" cy="163.5" r="11.0" fill="none" stroke="#4E8B3A" stroke-width="5"></circle><line x1="366.6" y1="233.8" x2="33.4" y2="166.2" stroke="#8A4A1C" stroke-width="2.5" opacity="0.35"></line><line x1="293.9" y1="341.7" x2="106.1" y2="58.3" stroke="#8A4A1C" stroke-width="2.5" opacity="0.35"></line><line x1="166.2" y1="366.6" x2="233.8" y2="33.4" stroke="#8A4A1C" stroke-width="2.5" opacity="0.35"></line><line x1="58.3" y1="293.9" x2="341.7" y2="106.1" stroke="#8A4A1C" stroke-width="2.5" opacity="0.35"></line></svg>